<?xml version="1.0" encoding="UTF-8"?>
<!DOCTYPE svg PUBLIC "-//W3C//DTD SVG 1.1//EN" "http://www.w3.org/Graphics/SVG/1.1/DTD/svg11.dtd">
<svg version="1.1" xmlns="http://www.w3.org/2000/svg" xmlns:xlink="http://www.w3.org/1999/xlink" x="0" y="0" width="260" height="260" viewBox="0, 0, 260, 260">
  <defs>
    <linearGradient id="Gradient_1" gradientUnits="userSpaceOnUse" x1="-95.395" y1="193.358" x2="-225.124" y2="193.358" gradientTransform="matrix(-0, -1, 1, -0, 0, 0)">
      <stop offset="0" stop-color="#BF394A"/>
      <stop offset="0.567" stop-color="#A43140"/>
      <stop offset="1" stop-color="#6C202A"/>
    </linearGradient>
    <linearGradient id="Gradient_2" gradientUnits="userSpaceOnUse" x1="-157.565" y1="119.079" x2="-250.232" y2="119.079" gradientTransform="matrix(-0, -1, 1, -0, 0, 0)">
      <stop offset="0" stop-color="#E7AF35"/>
      <stop offset="0.455" stop-color="#E7AA26"/>
      <stop offset="1" stop-color="#A4791B"/>
    </linearGradient>
    <linearGradient id="Gradient_3" gradientUnits="userSpaceOnUse" x1="107.152" y1="10.505" x2="107.152" y2="106.601">
      <stop offset="0" stop-color="#974789"/>
      <stop offset="0.567" stop-color="#703566"/>
      <stop offset="1" stop-color="#53274B"/>
    </linearGradient>
  </defs>
  <g id="Ebene_1">
    <path d="M12,0 L248,0 C254.627,0 260,5.373 260,12 L260,248 C260,254.627 254.627,260 248,260 L12,260 C5.373,260 0,254.627 0,248 L0,12 C0,5.373 5.373,0 12,0 z" fill="#DADADA"/>
    <g id="tablet">
      <g>
        <path d="M140.5,219.071 L140.5,96.929 C140.5,93.378 145.19,90.5 150.976,90.5 L240.024,90.5 C245.81,90.5 250.5,93.378 250.5,96.929 L250.5,219.071 C250.5,222.622 245.81,225.5 240.024,225.5 L150.976,225.5 C145.19,225.5 140.5,222.622 140.5,219.071 z" fill="url(#Gradient_1)"/>
        <path d="M140.5,219.071 L140.5,96.929 C140.5,93.378 145.19,90.5 150.976,90.5 L240.024,90.5 C245.81,90.5 250.5,93.378 250.5,96.929 L250.5,219.071 C250.5,222.622 245.81,225.5 240.024,225.5 L150.976,225.5 C145.19,225.5 140.5,222.622 140.5,219.071 z" fill-opacity="0" stroke="#FFFFFF" stroke-width="2"/>
      </g>
      <g>
        <path d="M195.5,183 C181.693,183 170.5,171.807 170.5,158 C170.5,144.193 181.693,133 195.5,133 C209.307,133 220.5,144.193 220.5,158 C220.5,171.807 209.307,183 195.5,183 z" fill="#A83343"/>
        <path d="M195.5,183 C181.693,183 170.5,171.807 170.5,158 C170.5,144.193 181.693,133 195.5,133 C209.307,133 220.5,144.193 220.5,158 C220.5,171.807 209.307,183 195.5,183 z" fill-opacity="0" stroke="#FFFFFF" stroke-width="5"/>
      </g>
    </g>
    <g id="mobil">
      <g>
        <path d="M84,245.908 L84,158.66 C84,156.124 87.113,154.068 90.952,154.068 L150.048,154.068 C153.887,154.068 157,156.124 157,158.66 L157,245.908 C157,248.444 153.887,250.5 150.048,250.5 L90.952,250.5 C87.113,250.5 84,248.444 84,245.908 z" fill="url(#Gradient_2)"/>
        <path d="M84,245.908 L84,158.66 C84,156.124 87.113,154.068 90.952,154.068 L150.048,154.068 C153.887,154.068 157,156.124 157,158.66 L157,245.908 C157,248.444 153.887,250.5 150.048,250.5 L90.952,250.5 C87.113,250.5 84,248.444 84,245.908 z" fill-opacity="0" stroke="#FFFFFF" stroke-width="2"/>
      </g>
      <g>
        <path d="M120.5,214.784 C113.596,214.784 108,209.188 108,202.284 C108,195.38 113.596,189.784 120.5,189.784 C127.404,189.784 133,195.38 133,202.284 C133,209.188 127.404,214.784 120.5,214.784 z" fill="#FFFFFF"/>
        <path d="M120.5,214.784 C113.596,214.784 108,209.188 108,202.284 C108,195.38 113.596,189.784 120.5,189.784 C127.404,189.784 133,195.38 133,202.284 C133,209.188 127.404,214.784 120.5,214.784 z" fill-opacity="0" stroke="#FFFFFF" stroke-width="2"/>
      </g>
    </g>
    <g id="tv">
      <g>
        <path d="M20.024,10.5 L200.976,10.5 C206.236,10.5 210.5,14.764 210.5,20.024 L210.5,100.976 C210.5,106.236 206.236,110.5 200.976,110.5 L20.024,110.5 C14.764,110.5 10.5,106.236 10.5,100.976 L10.5,20.024 C10.5,14.764 14.764,10.5 20.024,10.5 z" fill="url(#Gradient_3)"/>
        <path d="M20.024,10.5 L200.976,10.5 C206.236,10.5 210.5,14.764 210.5,20.024 L210.5,100.976 C210.5,106.236 206.236,110.5 200.976,110.5 L20.024,110.5 C14.764,110.5 10.5,106.236 10.5,100.976 L10.5,20.024 C10.5,14.764 14.764,10.5 20.024,10.5 z" fill-opacity="0" stroke="#FFFFFF" stroke-width="2"/>
      </g>
      <g id="circles">
        <g>
          <path d="M110.5,98.5 C89.513,98.5 72.5,81.487 72.5,60.5 C72.5,39.513 89.513,22.5 110.5,22.5 C131.487,22.5 148.5,39.513 148.5,60.5 C148.5,81.487 131.487,98.5 110.5,98.5 z" fill="#723567"/>
          <path d="M110.5,98.5 C89.513,98.5 72.5,81.487 72.5,60.5 C72.5,39.513 89.513,22.5 110.5,22.5 C131.487,22.5 148.5,39.513 148.5,60.5 C148.5,81.487 131.487,98.5 110.5,98.5 z" fill-opacity="0" stroke="#FFFFFF" stroke-width="5"/>
        </g>
        <g>
          <path d="M110.5,85.5 C96.693,85.5 85.5,74.307 85.5,60.5 C85.5,46.693 96.693,35.5 110.5,35.5 C124.307,35.5 135.5,46.693 135.5,60.5 C135.5,74.307 124.307,85.5 110.5,85.5 z" fill="#723567"/>
          <path d="M110.5,85.5 C96.693,85.5 85.5,74.307 85.5,60.5 C85.5,46.693 96.693,35.5 110.5,35.5 C124.307,35.5 135.5,46.693 135.5,60.5 C135.5,74.307 124.307,85.5 110.5,85.5 z" fill-opacity="0" stroke="#FFFFFF" stroke-width="5"/>
        </g>
        <g>
          <path d="M110.5,73 C103.596,73 98,67.404 98,60.5 C98,53.596 103.596,48 110.5,48 C117.404,48 123,53.596 123,60.5 C123,67.404 117.404,73 110.5,73 z" fill="#FFFFFF"/>
          <path d="M110.5,73 C103.596,73 98,67.404 98,60.5 C98,53.596 103.596,48 110.5,48 C117.404,48 123,53.596 123,60.5 C123,67.404 117.404,73 110.5,73 z" fill-opacity="0" stroke="#FFFFFF" stroke-width="2"/>
        </g>
      </g>
    </g>
  </g>
</svg>
