<?xml version="1.0" standalone="no"?>
<!DOCTYPE svg PUBLIC "-//W3C//DTD SVG 20010904//EN"
 "http://www.w3.org/TR/2001/REC-SVG-20010904/DTD/svg10.dtd">
<svg version="1.0" xmlns="http://www.w3.org/2000/svg"
 width="260.000000pt" height="260.000000pt" viewBox="0 0 260.000000 260.000000"
 preserveAspectRatio="xMidYMid meet">
<metadata>
Created by potrace 1.11, written by Peter Selinger 2001-2013
</metadata>
<g transform="translate(0.000000,260.000000) scale(0.100000,-0.100000)"
fill="#000000" stroke="none">
<path d="M142 2457 c-22 -23 -22 -25 -22 -463 l0 -441 23 -21 23 -22 940 0
941 0 21 23 c22 23 22 25 22 463 l0 441 -23 21 -23 22 -940 0 -941 0 -21 -23z
m1131 -94 c339 -159 305 -642 -54 -754 -112 -35 -234 -17 -339 51 -209 134
-240 441 -62 619 87 87 177 122 302 118 71 -2 97 -8 153 -34z"/>
<path d="M999 2331 c-144 -46 -249 -188 -249 -336 0 -107 65 -229 153 -289
128 -86 276 -86 404 0 88 60 153 182 153 289 0 107 -65 229 -153 289 -96 64
-202 81 -308 47z m226 -89 c47 -24 105 -83 131 -132 14 -26 19 -57 19 -115 0
-90 -14 -125 -74 -188 -59 -63 -104 -82 -196 -82 -92 0 -137 19 -196 82 -60
63 -74 98 -74 188 0 90 14 126 74 188 36 39 73 63 121 78 43 14 152 4 195 -19z"/>
<path d="M1030 2207 c-76 -24 -150 -129 -150 -212 0 -87 75 -189 156 -213 87
-26 159 -7 224 58 93 93 93 217 0 310 -65 65 -143 84 -230 57z m139 -95 c40
-21 71 -73 71 -117 0 -69 -66 -135 -135 -135 -17 0 -46 8 -64 18 -40 21 -71
73 -71 117 0 69 66 135 135 135 17 0 46 -8 64 -18z"/>
<path d="M2117 1614 c-4 -57 -9 -71 -36 -98 l-31 -31 -315 -3 -315 -3 0 -205
0 -204 51 0 c50 0 87 -12 101 -34 4 -6 8 -161 8 -343 l0 -333 433 0 c375 0
435 2 455 16 l22 15 0 629 0 629 -22 15 c-18 13 -54 16 -184 16 l-161 0 -6
-66z m-40 -351 c93 -43 153 -139 153 -243 0 -201 -214 -334 -395 -246 -197 97
-208 371 -20 481 83 49 171 52 262 8z"/>
<path d="M1850 1218 c-53 -29 -105 -100 -115 -158 -16 -93 33 -194 115 -238
64 -34 168 -29 228 10 130 87 130 289 0 376 -60 39 -164 44 -228 10z"/>
<path d="M850 255 c0 -81 4 -125 12 -133 17 -17 669 -17 686 0 8 8 12 52 12
133 l0 122 -355 0 -355 0 0 -122z"/>
</g>
</svg>
